<svg height="300px" width="300px" fill="#000000" xmlns="http://www.w3.org/2000/svg" xmlns:xlink="http://www.w3.org/1999/xlink" version="1.1" x="0px" y="0px" viewBox="0 0 100 100" enable-background="new 0 0 100 100" xml:space="preserve"><path d="M89.109,37.149c-1.547-0.101-3.002,0.326-4.203,1.114c-4.932-15.438-18.654-26.575-34.779-26.575  c-16.166,0-29.917,11.195-34.815,26.691c-1.235-0.865-2.761-1.336-4.383-1.23c-3.791,0.245-6.665,3.516-6.42,7.306l1.942,30.139  c0.245,3.791,3.518,6.664,7.308,6.42c3.791-0.244,6.665-3.517,6.42-7.306l-1.848-28.631c2.567-16.382,15.846-28.901,31.798-28.901  c15.645,0,28.723,12.045,31.643,27.965l-1.91,29.57c-0.244,3.789,2.631,7.062,6.42,7.308c3.791,0.244,7.062-2.629,7.307-6.42  l1.943-30.141C95.773,40.665,92.9,37.393,89.109,37.149z"/><circle cx="58.916" cy="29.028" r="4.532"/><path d="M67.342,41.067c-2.289-3.792-5.312-5.863-8.514-5.834c-3.184,0.03-6.15,2.136-8.35,5.934  c-0.734,1.267-1.37,2.729-1.919,4.33c-1.135-4.494-3.164-7.822-5.938-9.481c-2.352-1.407-5.046-1.408-7.392-0.004  c-4.785,2.864-7.351,10.754-6.864,21.111c0.047,0.988,0.886,1.753,1.874,1.706s1.753-0.886,1.707-1.874  c-0.226-4.813,0.245-9.083,1.362-12.342c0.135-0.395,0.28-0.774,0.434-1.138v15.226h0.016v22.575c0,1.2,0.974,2.173,2.173,2.173  s2.172-0.973,2.172-2.173V58.699h1.598v22.592c0,1.2,0.973,2.172,2.173,2.172c1.2,0,2.172-0.972,2.172-2.172V58.699h0.014v-15.38  c0.185,0.418,0.358,0.858,0.517,1.32c1.129,3.263,1.607,7.522,1.383,12.315c-0.047,0.989,0.717,1.829,1.706,1.874  c0.028,0.002,0.057,0.002,0.085,0.002c0.059,0,0.114-0.01,0.172-0.017c0.025,0.003,0.049,0.011,0.075,0.013  c0.929,0.062,1.727-0.644,1.788-1.57c0.387-6.021,1.633-11.001,3.604-14.4c0.223-0.385,0.453-0.744,0.689-1.08l-3.582,20.834h3.275  v18.665c0,1.2,0.973,2.173,2.172,2.173c1.201,0,2.174-0.973,2.174-2.173V62.609h1.598v18.682c0,1.2,0.975,2.172,2.174,2.172  s2.172-0.972,2.172-2.172V62.609h3.273l-3.59-20.877c0.244,0.334,0.482,0.692,0.715,1.075c2.055,3.404,3.406,8.41,3.91,14.479  c0.072,0.88,0.809,1.544,1.676,1.544c0.047,0,0.094-0.002,0.141-0.005c0.926-0.076,1.615-0.89,1.539-1.816  C71.18,50.424,69.664,44.912,67.342,41.067z"/><circle cx="38.793" cy="29.028" r="4.532"/></svg>